<svg width="1390" height="1390" viewBox="0 0 1390 1390" fill="none" xmlns="http://www.w3.org/2000/svg">
<rect width="1390" height="1390" fill="black"/>
<path d="M373.174 1386.5H147.515C148.052 1343 162.519 1302.76 181.418 1269.87C199.968 1237.59 222.703 1212.54 240.461 1198.57L373.174 1386.5Z" fill="#E52B01" stroke="black" stroke-width="5" stroke-linecap="round"/>
<path d="M267 1300C200 1170 273 1068 343 1035L563 1386H361C361 1386 303.592 1371 267 1300Z" fill="#E5E5E5" stroke="black" stroke-width="5"/>
<path d="M324.459 1067.55C307.845 977.36 331.643 881.072 369.721 796.865C407.146 714.103 458.236 643.297 497.765 601.853L1064.54 1357.56C1047.39 1370.83 1021.28 1381.56 1009.59 1385.5H588.07C499.513 1380.54 366.297 1294.67 324.459 1067.55Z" fill="#E52B01" stroke="black" stroke-width="5"/>
<mask id="path-5-inside-1_1_36" fill="white">
<path fill-rule="evenodd" clip-rule="evenodd" d="M1390 616.085V1103.92C1303.5 1262.45 1135.31 1370 942 1370C660.335 1370 432 1141.67 432 860C432 578.335 660.335 350 942 350C1135.31 350 1303.5 457.553 1390 616.085Z"/>
</mask>
<path fill-rule="evenodd" clip-rule="evenodd" d="M1390 616.085V1103.92C1303.5 1262.45 1135.31 1370 942 1370C660.335 1370 432 1141.67 432 860C432 578.335 660.335 350 942 350C1135.31 350 1303.5 457.553 1390 616.085Z" fill="white"/>
<path d="M1390 616.085H1391V615.83L1390.88 615.606L1390 616.085ZM1390 1103.92L1390.88 1104.39L1391 1104.17V1103.92H1390ZM1389 616.085V1103.92H1391V616.085H1389ZM1389.12 1103.44C1302.79 1261.66 1134.93 1369 942 1369V1371C1135.69 1371 1304.21 1263.23 1390.88 1104.39L1389.12 1103.44ZM942 1369C660.887 1369 433 1141.11 433 860H431C431 1142.22 659.782 1371 942 1371V1369ZM433 860C433 578.887 660.887 351 942 351V349C659.782 349 431 577.782 431 860H433ZM942 351C1134.93 351 1302.79 458.341 1389.12 616.564L1390.88 615.606C1304.21 456.766 1135.69 349 942 349V351Z" fill="black" mask="url(#path-5-inside-1_1_36)"/>
<circle cx="939.5" cy="856.5" r="433.5" fill="white" stroke="#2B2B2B" stroke-width="22"/>
<path fill-rule="evenodd" clip-rule="evenodd" d="M1315.2 1072.92C1119.84 1195.76 874.557 1173.19 743.979 1011.59C615.096 852.087 642.11 611.769 797.768 446.699C627.953 505.421 506 666.719 506 856.5C506 1095.92 700.085 1290 939.5 1290C1100.09 1290 1240.29 1202.67 1315.2 1072.92Z" fill="#B1B1B1"/>
<path d="M1206.51 846.257C1193.4 503.96 958.623 462.85 874.662 481.83C738.725 508.403 817.95 632.385 852.672 679.228C936.263 792 954.262 874 978.614 1064.53C1002.97 1255.07 1222.5 1263.83 1206.51 846.257Z" stroke="black" stroke-width="6"/>
<path fill-rule="evenodd" clip-rule="evenodd" d="M1170.63 1109.9C1108.88 1168.43 1033.61 1130.23 1027.93 993.422C1019.31 785.579 995.006 758.084 936.716 692.137C926.974 681.116 916.284 669.021 904.558 654.831C870.544 613.667 792.933 504.717 926.1 481.366C929.93 480.589 934.081 479.927 938.516 479.401C913.315 476.702 891.099 478.115 874.662 481.83C738.725 508.403 817.95 632.385 852.672 679.228C936.263 792 954.262 874 978.614 1064.53C995.82 1199.16 1110.47 1243.03 1170.63 1109.9Z" fill="#B1B1B1"/>
<path d="M1110 794C1059.78 547.923 954.463 534.224 930 551.999C889.945 577.745 941.193 626.866 964.271 675.417C1014 780.034 1028.29 842 1046 954C1066.55 1083.96 1170 1088 1110 794Z" fill="#020202"/>
<path d="M1287.33 720.197C1268.05 633.447 1216.44 620.029 1199.73 627C1172.55 637.212 1187.44 664.653 1199.73 681.439C1226.21 717.609 1232.12 739.413 1237.59 779.025C1243.92 824.988 1310.37 823.842 1287.33 720.197Z" fill="#BFBFBF"/>
<ellipse cx="1065.5" cy="678" rx="58.5" ry="84" fill="white"/>
</svg>
