<svg width="2048" height="1147" viewBox="0 0 2048 1147" fill="none" xmlns="http://www.w3.org/2000/svg">
<rect width="2048" height="1147" fill="black"/>
<path d="M1031.17 1143.5H805.515C806.052 1100 820.519 1059.76 839.418 1026.87C857.968 994.587 880.703 969.535 898.461 955.571L1031.17 1143.5Z" fill="#E52B01" stroke="black" stroke-width="5" stroke-linecap="round"/>
<path d="M925 1057C858 927 931 825 1001 792L1221 1143H1019C1019 1143 961.593 1128 925 1057Z" fill="#E5E5E5" stroke="black" stroke-width="5"/>
<path d="M982.459 824.547C965.845 734.36 989.643 638.072 1027.72 553.865C1065.15 471.103 1116.24 400.297 1155.77 358.853L1722.54 1114.56C1705.39 1127.83 1679.28 1138.56 1667.59 1142.5H1246.07C1157.51 1137.54 1024.3 1051.67 982.459 824.547Z" fill="#E52B01" stroke="black" stroke-width="5"/>
<mask id="path-5-inside-1_1_37" fill="white">
<path fill-rule="evenodd" clip-rule="evenodd" d="M2048 373.085V860.915C1961.5 1019.45 1793.31 1127 1600 1127C1318.33 1127 1090 898.665 1090 617C1090 335.335 1318.33 107 1600 107C1793.31 107 1961.5 214.553 2048 373.085Z"/>
</mask>
<path fill-rule="evenodd" clip-rule="evenodd" d="M2048 373.085V860.915C1961.5 1019.45 1793.31 1127 1600 1127C1318.33 1127 1090 898.665 1090 617C1090 335.335 1318.33 107 1600 107C1793.31 107 1961.5 214.553 2048 373.085Z" fill="white"/>
<path d="M2048 373.085H2049V372.83L2048.88 372.606L2048 373.085ZM2048 860.915L2048.88 861.394L2049 861.17V860.915H2048ZM2047 373.085V860.915H2049V373.085H2047ZM2047.12 860.436C1960.79 1018.66 1792.93 1126 1600 1126V1128C1793.69 1128 1962.21 1020.23 2048.88 861.394L2047.12 860.436ZM1600 1126C1318.89 1126 1091 898.113 1091 617H1089C1089 899.218 1317.78 1128 1600 1128V1126ZM1091 617C1091 335.887 1318.89 108 1600 108V106C1317.78 106 1089 334.782 1089 617H1091ZM1600 108C1792.93 108 1960.79 215.341 2047.12 373.564L2048.88 372.606C1962.21 213.766 1793.69 106 1600 106V108Z" fill="black" mask="url(#path-5-inside-1_1_37)"/>
<circle cx="1597.5" cy="613.5" r="433.5" fill="white" stroke="#2B2B2B" stroke-width="22"/>
<path fill-rule="evenodd" clip-rule="evenodd" d="M1973.2 829.915C1777.84 952.756 1532.56 930.191 1401.98 768.591C1273.1 609.087 1300.11 368.769 1455.77 203.699C1285.95 262.421 1164 423.719 1164 613.5C1164 852.915 1358.08 1047 1597.5 1047C1758.09 1047 1898.29 959.673 1973.2 829.915Z" fill="#B1B1B1"/>
<path d="M1864.51 603.257C1851.4 260.96 1616.62 219.85 1532.66 238.83C1396.72 265.403 1475.95 389.385 1510.67 436.228C1594.26 549 1612.26 631 1636.61 821.533C1660.97 1012.07 1880.5 1020.83 1864.51 603.257Z" stroke="black" stroke-width="6"/>
<path fill-rule="evenodd" clip-rule="evenodd" d="M1828.63 866.903C1766.88 925.432 1691.61 887.234 1685.93 750.422C1677.31 542.579 1653.01 515.084 1594.72 449.137C1584.97 438.116 1574.28 426.021 1562.56 411.831C1528.54 370.667 1450.93 261.717 1584.1 238.366C1587.93 237.589 1592.08 236.927 1596.52 236.401C1571.31 233.702 1549.1 235.115 1532.66 238.83C1396.72 265.403 1475.95 389.385 1510.67 436.228C1594.26 549 1612.26 631 1636.61 821.533C1653.82 956.156 1768.47 1000.03 1828.63 866.903Z" fill="#B1B1B1"/>
<path d="M1768 551C1717.78 304.923 1612.46 291.224 1588 308.999C1547.95 334.745 1599.19 383.866 1622.27 432.417C1672 537.034 1686.29 599 1704 711C1724.55 840.955 1828 845 1768 551Z" fill="#020202"/>
<path d="M1945.33 477.197C1926.05 390.447 1874.44 377.029 1857.73 384C1830.55 394.212 1845.44 421.653 1857.73 438.439C1884.21 474.609 1890.12 496.413 1895.59 536.025C1901.92 581.988 1968.37 580.842 1945.33 477.197Z" fill="#BFBFBF"/>
<ellipse cx="1723.5" cy="435" rx="58.5" ry="84" fill="white"/>
</svg>
